<svg id="レイヤー_1" data-name="レイヤー 1" xmlns="http://www.w3.org/2000/svg" viewBox="0 0 248.15 248.15"><defs><style>.cls-1{fill:#38beef;}.cls-2{fill:#fff;}</style></defs><title>アートボード 2</title><circle class="cls-1" cx="124.07" cy="124.07" r="124.07"/><path class="cls-2" d="M201.06,86.64a60.48,60.48,0,0,1-17.39,4.78A30.47,30.47,0,0,0,197,74.68,61.42,61.42,0,0,1,177.74,82a30.29,30.29,0,0,0-51.59,27.59A86,86,0,0,1,63.73,78a30.35,30.35,0,0,0,9.38,40.42,30.52,30.52,0,0,1-13.72-3.81V115a30.29,30.29,0,0,0,24.29,29.69,30.75,30.75,0,0,1-8,1.06,30.15,30.15,0,0,1-5.69-.55,30.29,30.29,0,0,0,28.27,21,60.58,60.58,0,0,1-37.6,12.93,65.37,65.37,0,0,1-7.21-.41,85.61,85.61,0,0,0,46.4,13.63c55.71,0,86.15-46.14,86.15-86.15l-.1-3.91A60.31,60.31,0,0,0,201.06,86.64Z"/></svg>