<svg id="レイヤー_1" data-name="レイヤー 1" xmlns="http://www.w3.org/2000/svg" viewBox="0 0 248.15 248.15"><defs><style>.cls-1{fill:#fff;}.cls-2{fill:#38beef;}</style></defs><title>アートボード 4</title><path class="cls-1" d="M124.07,242.15A118.07,118.07,0,1,1,242.15,124.07,118.21,118.21,0,0,1,124.07,242.15Z"/><path class="cls-2" d="M124.07,12a112.07,112.07,0,0,1,79.25,191.32A112.07,112.07,0,1,1,44.83,44.83,111.34,111.34,0,0,1,124.07,12m0-12A124.07,124.07,0,1,0,248.15,124.07,124.07,124.07,0,0,0,124.07,0Z"/><path class="cls-2" d="M201.06,86.64a60.48,60.48,0,0,1-17.39,4.78A30.47,30.47,0,0,0,197,74.68,61.42,61.42,0,0,1,177.74,82a30.29,30.29,0,0,0-51.59,27.59A86,86,0,0,1,63.73,78a30.35,30.35,0,0,0,9.38,40.42,30.52,30.52,0,0,1-13.72-3.81V115a30.29,30.29,0,0,0,24.29,29.69,30.75,30.75,0,0,1-8,1.06,30.15,30.15,0,0,1-5.69-.55,30.29,30.29,0,0,0,28.27,21,60.58,60.58,0,0,1-37.6,12.93,65.37,65.37,0,0,1-7.21-.41,85.61,85.61,0,0,0,46.4,13.63c55.71,0,86.15-46.14,86.15-86.15l-.1-3.91A60.31,60.31,0,0,0,201.06,86.64Z"/></svg>